<?xml version="1.0" encoding="iso-8859-1"?>
<!-- Generator: Adobe Illustrator 19.0.0, SVG Export Plug-In . SVG Version: 6.00 Build 0)  -->
<svg version="1.1" id="&#x56FE;&#x5C42;_1" xmlns="http://www.w3.org/2000/svg" xmlns:xlink="http://www.w3.org/1999/xlink" x="0px"
	 y="0px" viewBox="0 0 32 32" style="enable-background:new 0 0 32 32;" xml:space="preserve">
<path id="XMLID_5_" style="fill:#D22628;" d="M16,1C7.716,1,1,7.716,1,16c0,8.285,6.716,15,15,15c8.285,0,15-6.715,15-15
	C31,7.716,24.285,1,16,1z M14.779,7.303c0.234-0.302,0.637-0.454,1.207-0.454c0.537,0,0.922,0.142,1.156,0.428
	c0.234,0.286,0.349,0.731,0.349,1.337c0,0.173-0.009,0.355-0.025,0.545l-1.013,11.42h-1.039l-0.96-11.317
	c-0.017-0.19-0.025-0.38-0.026-0.571C14.428,8.069,14.545,7.607,14.779,7.303z M17.075,24.59c-0.311,0.302-0.684,0.454-1.115,0.454
	c-0.433,0-0.805-0.151-1.117-0.454c-0.312-0.302-0.467-0.679-0.467-1.129c0-0.433,0.155-0.805,0.468-1.117
	c0.311-0.311,0.683-0.466,1.117-0.466c0.432,0,0.804,0.152,1.115,0.454c0.312,0.302,0.468,0.68,0.468,1.13
	S17.387,24.288,17.075,24.59z"/>
</svg>
