<?xml version="1.0" encoding="iso-8859-1"?>
<!-- Generator: Adobe Illustrator 19.0.0, SVG Export Plug-In . SVG Version: 6.00 Build 0)  -->
<svg version="1.1" id="&#x56FE;&#x5C42;_1" xmlns="http://www.w3.org/2000/svg" xmlns:xlink="http://www.w3.org/1999/xlink" x="0px"
	 y="0px" viewBox="0 0 32 32" style="enable-background:new 0 0 32 32;" xml:space="preserve">
<g>
	<g id="XMLID_52_">
		<path id="XMLID_53_" style="fill-rule:evenodd;clip-rule:evenodd;fill:#D03F3B;" d="M3.144,19.45h11.599v-9.24H3.144V19.45z
			 M3.144,31h11.599v-9.24H3.144V31z M28.661,19.45v-9.24H17.062v9.24H28.661z M17.405,9.829c0.394-0.429,1.1-1.163,1.977-1.928
			c1.359-1.184,3.436-4.62,4.64-4.62c4.82,0,1.798,2.471,0,2.31c-1.721-0.155-5.339,3.091-6.549,4.228
			c2.68-0.396,6.741-1.029,9.44-1.607c3.531-0.757,1.812-4.139,0-5.717c-1.812-1.578-3.844-2.367-6.561,0
			C18.715,3.92,17.02,6.422,15.927,8.19c-1.012-1.69-2.575-4.042-4.183-5.443c-2.718-2.368-4.75-1.578-6.561,0
			c-1.812,1.579-4.78,5.154,2.601,5.154c1.626,0,3.841,0.538,5.7,1.095c-1.461-1.33-3.899-3.291-5.7-3.405
			c-1.802-0.113-3.951-2.17,0-2.31c1.203-0.043,3.28,3.435,4.639,4.62c0.462,0.403,0.873,0.795,1.221,1.142
			c0.539,0.164,1.039,0.326,1.488,0.477c-0.245,0.424-0.389,0.691-0.389,0.691s0.659-0.09,1.682-0.238
			c0.399,0.146,0.637,0.238,0.637,0.238s-0.06-0.117-0.162-0.307C17.056,9.88,17.237,9.853,17.405,9.829z M17.063,31h11.599v-9.24
			H17.063V31z"/>
	</g>
</g>
</svg>
